{"title":"Edinburgh Military Tattoo 2013 WEB-DL x264-JIVE","uid":8856182,"size":200053366,"categoryP":"video","categoryS":"other","magnet":"?xt=urn:btih:cf7d5048e88de8da75909a58ca4148b888e256bb&amp;dn=Edinburgh+Military+Tattoo+2013+WEB-DL+x264-JIVE&amp;tr=udp%3A%2F%2Ftracker.openbittorrent.com%3A80&amp;tr=udp%3A%2F%2Fopen.demonii.com%3A1337&amp;tr=udp%3A%2F%2Ftracker.coppersurfer.tk%3A6969&amp;tr=udp%3A%2F%2Fexodus.desync.com%3A6969","seeders":0,"leechers":1,"uploader":"[mR12]","files":-1,"time":1377655084,"description":"Edinburgh Military Tattoo 2013 WEB-DL x264-JIVE\n\nInformation\n------------------------\nHighlights of the Royal Edinburgh Military Tattoo which this year is marking Natural Scotland.Military bands from all corners of the globe descend on Edinburgh Castle esplanade, including traditional acts from Korea and Mongolia, while the vibrant music and dance of Mexico makes a first appearance at the event.The New Zealand Army Band returns along with home favourites the Massed Pipes and Drums, the Massed Military Bands, the Tattoo Highland Dancers and the Lone Piper.Commentary by Bill Paterson.\n\nThe Royal Edinburgh Military Tattoo is one of the world's most spectacular shows and the ideal event for corporate and client entertainment.\n\nThe Royal Edinburgh Military Tattoo is one of the world's most spectacular shows bringing together a glittering cast of performers from across the world showcasing a breathtaking array of military and civilian performance steeped in heritage, pride and professionalism all set against the iconic backdrop of Edinburgh Castle.\nIn 2013 we will be highlighting Scotland's reputation as a land of outstanding beauty as the Tattoo celebrates the 'Year of Natural Scotland'.  We will be featuring performers from all points of the compass - our World!\n\nFor further info: http://www.edintattoo.co.uk/\n\nTechnical\n------------------------\nGeneral\nFormat                                   : MPEG-4\nFormat profile                           : Base Media\nCodec ID                                 : isom\nFile size                                : 191 MiB\nDuration                                 : 59mn 21s\nOverall bit rate mode                    : Constant\nOverall bit rate                         : 449 Kbps\nWriting application                      : Lavf54.63.104\n\nVideo\nID                                       : 1\nFormat                                   : AVC\nFormat/Info                              : Advanced Video Codec\nFormat profile                           : &lt;a class=&quot;__cf_email__&quot; href=&quot;/cdn-cgi/l/email-protection&quot; data-cfemail=&quot;06446775636a6f6863464a352836&quot;&gt;[email&amp;#160;protected]&lt;/a&gt;&lt;script cf-hash='f9e31' type=&quot;text/javascript&quot;&gt;\n/* &lt;![CDATA[ */!function(){try{var t=&quot;currentScript&quot;in document?document.currentScript:function(){for(var t=document.getElementsByTagName(&quot;script&quot;),e=t.length;e--;)if(t[e].getAttribute(&quot;cf-hash&quot;))return t[e]}();if(t&amp;&amp;t.previousSibling){var e,r,n,i,c=t.previousSibling,a=c.getAttribute(&quot;data-cfemail&quot;);if(a){for(e=&quot;&quot;,r=parseInt(a.substr(0,2),16),n=2;a.length-n;n+=2)i=parseInt(a.substr(n,2),16)^r,e+=String.fromCharCode(i);e=document.createTextNode(e),c.parentNode.replaceChild(e,c)}}}catch(u){}}();/* ]]&gt; */&lt;/script&gt;\nFormat settings, CABAC                   : No\nFormat settings, ReFrames                : 2 frames\nCodec ID                                 : avc1\nCodec ID/Info                            : Advanced Video Coding\nDuration                                 : 59mn 21s\nBit rate mode                            : Constant\nBit rate                                 : 384 Kbps\nWidth                                    : 640 pixels\nHeight                                   : 360 pixels\nDisplay aspect ratio                     : 16:9\nFrame rate mode                          : Constant\nFrame rate                               : 25.000 fps\nStandard                                 : PAL\nColor space                              : YUV\nChroma subsampling                       : 4:2:0\nBit depth                                : 8 bits\nScan type                                : Progressive\nBits/(Pixel*Frame)                       : 0.067\nStream size                              : 162 MiB (85%)\n\nAudio\nID                                       : 2\nFormat                                   : AAC\nFormat/Info                              : Advanced Audio Codec\nFormat profile                           : LC\nCodec ID                                 : 40\nDuration                                 : 59mn 21s\nBit rate mode                            : Constant\nBit rate                                 : 61.7 Kbps\nChannel(s)                               : 2 channels\nChannel positions                        : Front: L R\nSampling rate                            : 44.1 KHz\nCompression mode                         : Lossy\nStream size                              : 26.2 MiB (14%)\n\n-=-=-=-=-=-=-=-=-=-=-=-=-=-\nUploaded by [mR12] Torrents\n-=-=-=-=-=-=-=-=-=-=-=-=-=-\n","torrent":{"xt":"urn:btih:cf7d5048e88de8da75909a58ca4148b888e256bb","amp;dn":"Edinburgh+Military+Tattoo+2013+WEB-DL+x264-JIVE","amp;tr":["udp%3A%2F%2Ftracker.openbittorrent.com%3A80","udp%3A%2F%2Fopen.demonii.com%3A1337","udp%3A%2F%2Ftracker.coppersurfer.tk%3A6969","udp%3A%2F%2Fexodus.desync.com%3A6969"],"infoHash":"cf7d5048e88de8da75909a58ca4148b888e256bb","infoHashBuffer":{"type":"Buffer","data":[207,125,80,72,232,141,232,218,117,144,154,88,202,65,72,184,136,226,86,187]},"announce":[],"urlList":[]}}